<?xml version="1.0" encoding="UTF-8" standalone="no"?>
<svg width="1430.1pt" height="423.211pt" viewBox="0 0 1430.1 423.211" version="1.1" id="svg264" sodipodi:docname="selfnet.svg" inkscape:version="1.4 (e7c3feb100, 2024-10-09)" xmlns:inkscape="http://www.inkscape.org/namespaces/inkscape" xmlns:sodipodi="http://sodipodi.sourceforge.net/DTD/sodipodi-0.dtd" xmlns="http://www.w3.org/2000/svg" xmlns:svg="http://www.w3.org/2000/svg" xmlns:rdf="http://www.w3.org/1999/02/22-rdf-syntax-ns#" xmlns:cc="http://creativecommons.org/ns#" xmlns:dc="http://purl.org/dc/elements/1.1/">
  <metadata id="metadata270">
    <rdf:RDF>
      <cc:Work rdf:about="">
        <dc:format>image/svg+xml</dc:format>
        <dc:type rdf:resource="http://purl.org/dc/dcmitype/StillImage"/>
      </cc:Work>
    </rdf:RDF>
  </metadata>
  <defs id="defs268"/>
  <sodipodi:namedview pagecolor="#ffffff" bordercolor="#666666" borderopacity="1" objecttolerance="10" gridtolerance="10" guidetolerance="10" inkscape:pageopacity="0" inkscape:pageshadow="2" inkscape:window-width="2560" inkscape:window-height="1371" id="namedview266" showgrid="false" inkscape:zoom="0.33038824" inkscape:cx="1782.7511" inkscape:cy="66.588327" inkscape:window-x="0" inkscape:window-y="0" inkscape:window-maximized="1" inkscape:current-layer="svg264" inkscape:showpageshadow="2" inkscape:pagecheckerboard="0" inkscape:deskcolor="#d1d1d1" inkscape:document-units="pt"/>
  <g id="g2" transform="translate(-57.75,-42.60464)">
    <path style="fill:#ff5d1c" inkscape:connector-curvature="0" d="m 813.2,126.45192 c 15.93,-0.08 31.86,-0.06 47.8,0 -17.66,83.76 -35.56,167.48 -53.44,251.21 -15.89,-0.06 -31.78,0.02 -47.67,-0.05 17.52,-83.77 35.64,-167.41 53.31,-251.16 z" id="path6"/>
    <path style="fill:#ff5d1c" inkscape:connector-curvature="0" d="m 944.94,129.58192 c 15.87,-4.12 32.39,-3.07 48.62,-3.13 -2.94,13.37 -5.9,26.74 -8.59,40.16 -13.36,0 -28.23,-0.47 -39.27,8.36 -8.97,6.79 -11.55,18.33 -13.58,28.77 14.91,0.06 29.83,-0.01 44.74,0.04 -2.71,13.66 -5.76,27.25 -8.56,40.89 -14.94,0.02 -29.87,0.02 -44.8,-0.01 -9.5,44.31 -18.84,88.66 -28.29,132.98 -15.95,-0.01 -31.91,0.02 -47.86,-0.02 12.51,-58.91 24.96,-117.83 37.43,-176.74 3.38,-16.49 9.18,-32.92 19.87,-46.16 10.09,-12.65 24.6,-21.4 40.29,-25.14 z" id="path8"/>
    <path style="fill:#ff5d1c" inkscape:connector-curvature="0" d="m 1369.83,312.12192 c 11.48,-54.46 22.95,-108.92 34.54,-163.35 15.89,0.05 31.77,-0.02 47.66,0.03 -3.66,18.36 -7.73,36.63 -11.58,54.94 15.8,0.06 31.6,-0.01 47.4,0.04 -2.74,13.65 -5.8,27.23 -8.57,40.88 -15.85,0.05 -31.7,0 -47.55,0.02 -4.83,22.16 -9.53,44.36 -14.28,66.55 -0.59,5.98 -1.02,12.78 2.61,17.95 3.23,4.28 8.87,5.43 13.89,6.18 8.79,1 17.66,0.54 26.5,0.67 -3.05,13.86 -6,27.75 -9.09,41.61 -15.91,-0.2 -31.9,0.68 -47.72,-1.4 -14.85,-2.03 -29.12,-12.03 -34.14,-26.45 -4.13,-12.18 -2.08,-25.36 0.33,-37.67 z" id="path10"/>
    <path style="fill:#ff5d1c" inkscape:connector-curvature="0" d="m 635.99,208.33192 c 19.91,-8.9 42.61,-12.05 64.09,-7.86 13.81,2.7 26.8,9.91 35.82,20.8 8.83,10.75 14.51,23.97 17.13,37.58 -36.67,19.85 -73.09,40.16 -109.79,59.94 -3.52,-10.18 -7.77,-20.1 -11.16,-30.33 22.33,-12.59 44.61,-25.26 66.82,-38.06 -3.81,-5.82 -9.94,-9.74 -16.61,-11.44 -13.4,-3.53 -28.1,0.27 -38.96,8.63 -12.71,9.43 -20.93,24.04 -23.95,39.44 -3.19,13.68 -2.22,29.54 6.95,40.82 5.3,7.07 13.79,11.17 22.44,12.3 12.34,1.52 25,-1.42 35.9,-7.28 14.52,-7.81 26.25,-20.15 34.51,-34.32 8.56,8.19 17.38,16.11 25.81,24.45 -12.09,15.49 -25.77,30.03 -42.2,40.95 -13.69,9.15 -29.5,15.05 -45.82,17.14 -17.26,2.03 -35.5,1.25 -51.33,-6.58 -18.08,-8.8 -32.19,-25.71 -36.83,-45.37 -3.37,-14.44 -3.14,-29.81 1.1,-44.05 8.83,-33.94 34.53,-62.17 66.08,-76.76 z" id="path12"/>
    <path style="fill:#ff5d1c" inkscape:connector-curvature="0" d="m 1219.38,215.42192 c 17.43,-10.99 37.99,-16.85 58.6,-16.77 16.54,-0.11 33.76,4.07 46.67,14.86 13.72,11.24 21.19,28.21 25.19,45.13 -36.61,20.11 -73.28,40.12 -109.9,60.21 -3.84,-10.03 -7.5,-20.14 -11.44,-30.13 22.16,-12.77 44.39,-25.41 66.67,-37.97 -2.36,-5.42 -7.75,-8.66 -13.03,-10.75 -12.39,-4.57 -26.61,-2.22 -37.74,4.55 -11.92,7.32 -20.98,18.96 -25.56,32.14 -3.81,11.14 -5.92,23.24 -3.45,34.91 1.89,9.7 7.68,18.85 16.26,23.94 9.52,5.61 21.24,5.94 31.84,3.81 13.66,-2.72 25.89,-10.3 35.92,-19.76 6.52,-6.13 11.68,-13.5 16.43,-21.04 8.58,8.16 17.22,16.27 25.82,24.42 -11.97,15.17 -25.31,29.55 -41.42,40.4 -14.03,9.6 -30.37,15.69 -47.23,17.8 -17,1.9 -34.93,1.11 -50.54,-6.54 -20.34,-9.76 -35.47,-29.85 -38.43,-52.31 -3.4,-22.29 2.65,-45.07 13.7,-64.43 10,-17.38 24.72,-31.82 41.64,-42.47 z" id="path14"/>
    <path style="fill:#ff5d1c" inkscape:connector-curvature="0" d="m 1050.94,203.23192 c 15.29,-3.28 31.32,-3.74 46.63,-0.35 12.63,2.88 24.78,9.61 32.35,20.34 7.73,10.61 10.22,24.05 10.17,36.93 -0.89,15.95 -5,31.45 -8.21,47.03 -4.92,23.48 -10.19,46.88 -14.91,70.39 -15.94,0.15 -31.87,0.04 -47.81,0.06 6.08,-28.86 12.28,-57.7 18.44,-86.54 2.13,-10.3 4.45,-21.49 0.21,-31.57 -2.61,-6.33 -9.03,-10.25 -15.64,-11.14 -10.7,-1.56 -22.44,0.97 -30.55,8.43 -8.94,8.2 -13.16,20.11 -15.78,31.66 -6.53,29.71 -12.71,59.49 -19.29,89.18 -15.93,-0.05 -31.87,0.04 -47.8,-0.04 6.95,-32.47 13.65,-64.98 20.64,-97.44 3.98,-18.55 12.02,-36.56 25.13,-50.48 12.31,-13.28 28.74,-22.6 46.42,-26.46 z" id="path16"/>
  </g>
  <g id="g1" transform="translate(-57.75,-29.216067)">
    <path style="fill:#ff5d1c" inkscape:connector-curvature="0" d="m 255.21,51.16 c 40.89,-14.71 84.38,-22.14 127.83,-21.94 46.49,-0.18 93.01,7.17 137.18,21.66 -3.69,9.12 -9.63,17.08 -15.35,25.01 -12.61,17.14 -26.29,34 -34.2,53.98 -1.96,5.39 -4.07,10.84 -4.53,16.62 -0.54,-0.01 -1.08,-0.04 -1.61,-0.07 l 1.21,-0.5 c 0.31,-9.97 0.74,-19.95 0.64,-29.94 -0.2,-7.31 -1.79,-15.01 -6.61,-20.74 -3.55,-4.49 -8.95,-6.82 -14,-9.16 -28.45,-12.97 -59.83,-17.98 -90.85,-19.5 -34.69,-1.03 -70.11,0.35 -103.36,11.19 -20.04,6.83 -39.82,17.74 -52.13,35.49 -21.4,-0.1 -42.81,0.07 -64.21,-0.08 C 149.79,99 167.7,88.91 185.74,79.83 208.25,68.78 231.59,59.53 255.21,51.16 Z" id="path4"/>
    <path style="fill:#ff5d1c" inkscape:connector-curvature="0" d="m 123.91,125.81 c 23.07,0.02 46.13,-0.01 69.2,0.01 -0.91,4.19 -1.73,8.4 -2.4,12.63 -24.93,-0.08 -49.85,0.07 -74.78,-0.08 2.34,-4.38 5,-8.58 7.98,-12.56 z" id="path18"/>
    <path style="fill:#ff5d1c" inkscape:connector-curvature="0" d="m 117,206.02 c -9.65,-15.83 -11.65,-35.75 -6.65,-53.47 27.05,0.04 54.09,0.02 81.14,0.01 2.16,9.91 8.06,18.77 16.22,24.76 11.02,8.61 24.95,11.78 38.35,14.63 61.2,12.31 123.99,14.52 184.97,28.1 14.27,3.37 28.86,6.75 41.61,14.26 12.43,7.1 23.46,17.46 29.28,30.73 6.92,15.91 6.81,34.44 0.97,50.66 -5.21,14.73 -14.72,27.51 -25.44,38.7 -11.69,11.87 -24.98,22.05 -38.86,31.21 -33.78,22.11 -70.94,39.03 -109.76,50.08 -58.06,16.55 -119.38,20.2 -179.26,13.7 -31.18,-3.31 -61.91,-10.17 -91.82,-19.53 2.43,-7.49 7.46,-13.74 12.43,-19.7 10.83,-12.15 23.47,-22.56 34.13,-34.87 8.88,-10.5 16.37,-22.88 18.19,-36.74 0.52,8.17 -0.39,16.33 0.01,24.5 0.33,8.02 -0.02,16.07 0.69,24.08 52.25,25.17 111.11,35.18 168.83,31.88 22.98,-1.53 45.94,-5.89 67.3,-14.68 16.09,-6.73 31.49,-15.74 43.94,-28.08 10.14,-10.07 17.76,-23.04 19.99,-37.29 2.05,-11.99 1.11,-24.82 -4.32,-35.84 -4.33,-8.64 -11.89,-15.46 -20.67,-19.4 -11.24,-5.05 -23.3,-7.89 -35.35,-10.23 -28.17,-5.61 -56.89,-7.34 -85.35,-10.87 -23.7,-2.81 -47.36,-6.07 -70.82,-10.48 -17.28,-3.48 -34.72,-7.07 -50.98,-14.06 C 140.49,230.89 125.88,220.7 117,206.02 Z" id="path20"/>
  </g>
</svg>