<?xml version="1.0" encoding="UTF-8" standalone="no"?>
<!-- Created with Inkscape (http://www.inkscape.org/) -->

<svg
   id="svg2"
   version="1.1"
   inkscape:version="1.4 (e7c3feb100, 2024-10-09)"
   width="692.04279"
   height="633.28076"
   xml:space="preserve"
   sodipodi:docname="selfnet-s.svg"
   xmlns:inkscape="http://www.inkscape.org/namespaces/inkscape"
   xmlns:sodipodi="http://sodipodi.sourceforge.net/DTD/sodipodi-0.dtd"
   xmlns="http://www.w3.org/2000/svg"
   xmlns:svg="http://www.w3.org/2000/svg"
   xmlns:rdf="http://www.w3.org/1999/02/22-rdf-syntax-ns#"
   xmlns:cc="http://creativecommons.org/ns#"
   xmlns:dc="http://purl.org/dc/elements/1.1/"><metadata
     id="metadata8"><rdf:RDF><cc:Work
         rdf:about=""><dc:format>image/svg+xml</dc:format><dc:type
           rdf:resource="http://purl.org/dc/dcmitype/StillImage" /></cc:Work></rdf:RDF></metadata><defs
     id="defs6"><clipPath
       clipPathUnits="userSpaceOnUse"
       id="clipPath16"><path
         d="M 0,792 H 612 V 0 H 0 Z"
         id="path18" /></clipPath></defs><sodipodi:namedview
     pagecolor="#ffffff"
     bordercolor="#666666"
     borderopacity="1"
     objecttolerance="10"
     gridtolerance="10"
     guidetolerance="10"
     inkscape:pageopacity="0"
     inkscape:pageshadow="2"
     inkscape:window-width="2560"
     inkscape:window-height="1371"
     id="namedview4"
     showgrid="false"
     inkscape:zoom="0.5212121"
     inkscape:cx="230.23257"
     inkscape:cy="293.54652"
     inkscape:window-x="0"
     inkscape:window-y="0"
     inkscape:window-maximized="1"
     inkscape:current-layer="g10"
     inkscape:showpageshadow="2"
     inkscape:pagecheckerboard="0"
     inkscape:deskcolor="#d1d1d1" /><g
     id="g10"
     inkscape:groupmode="layer"
     inkscape:label="Logo_Selfnet_CMYK"
     transform="matrix(1.25,0,0,-1.25,-32.489694,893.77563)"><g
       id="g12"
       style="fill:#ff5a17;fill-opacity:1"
       transform="matrix(3.9260078,0,0,3.9260078,-898.59643,-1094.8581)"><g
         id="g14"
         clip-path="url(#clipPath16)"
         style="fill:#ff5a17;fill-opacity:1"><g
           id="g20"
           transform="translate(259.1665,435.3672)"
           style="fill:#ff5a17;fill-opacity:1"><path
             d="m 0,0 c 0.46,0.447 0.939,0.891 1.437,1.331 6.526,5.768 18.479,11.712 35.857,17.834 12.224,4.304 25.018,6.465 38.362,6.465 6.672,0 13.479,-0.52 20.431,-1.558 6.946,-1.041 14.033,-2.724 21.267,-5.073 -3.116,-7.732 -14.874,-17.595 -16.63,-29.61 0.136,3.814 0.207,6.953 0.207,9.407 0,4.219 -1.477,7.077 -4.405,8.573 -9.106,4.636 -20.734,6.953 -34.872,6.953 -14.29,0 -25.317,-2.183 -33.091,-6.527 -4.024,-2.254 -7.004,-4.854 -8.942,-7.798 z"
             style="fill:#ff5a17;fill-opacity:1;fill-rule:nonzero;stroke:none"
             id="path22"
             inkscape:connector-curvature="0" /></g><g
           id="g24"
           transform="translate(253.2988,427.6855)"
           style="fill:#ff5a17;fill-opacity:1"><path
             d="M 0,0 C 0.672,1.295 1.479,2.566 2.423,3.813 L 23.605,3.815 C 23.203,2.599 22.948,1.333 22.84,0.018 Z"
             style="fill:#ff5a17;fill-opacity:1;fill-rule:nonzero;stroke:none"
             id="path26"
             inkscape:connector-curvature="0" /></g><g
           id="g28"
           transform="translate(276.3594,423.356)"
           style="fill:#ff5a17;fill-opacity:1"><path
             d="m 0,0 c 0.896,-4.396 3.94,-7.715 9.136,-9.959 4.739,-1.913 16.203,-3.919 34.391,-6.019 20.53,-2.39 33.84,-4.989 39.952,-7.794 8.461,-4.075 12.692,-10.259 12.692,-18.543 0,-11.661 -9.489,-22.751 -28.47,-33.29 C 48.722,-86.144 27.48,-91.402 3.98,-91.402 c -7.649,0 -15.184,0.563 -22.626,1.673 -7.44,1.133 -14.84,2.87 -22.21,5.248 4.095,9.927 17.835,14.885 19.956,28.177 l -0.208,-5.602 0.208,-9.552 c 6.828,-3.325 14.04,-5.808 21.638,-7.472 7.597,-1.661 15.507,-2.495 23.739,-2.495 13.377,0 24.456,2.662 33.239,7.994 8.781,5.321 13.177,12.002 13.177,20.037 0,5.811 -2.16,10.03 -6.474,12.671 -4.45,2.619 -13.639,4.624 -27.553,6.015 -24.778,2.486 -40.784,5.397 -48.017,8.743 -9.604,4.583 -14.405,11.327 -14.405,20.225 0,1.962 0.261,3.878 0.782,5.746 z"
             style="fill:#ff5a17;fill-opacity:1;fill-rule:nonzero;stroke:none"
             id="path30"
             inkscape:connector-curvature="0" /></g></g></g></g></svg>
